<svg xmlns="http://www.w3.org/2000/svg" width="2040" height="1126" viewBox="0 0 2040 1126" font-family="Arial"><rect width="2040" height="1126" fill="#FFFFFF"/><text x="40" y="52" font-size="28" font-weight="bold" fill="#153B2C">DahonMD | Entity-relationship diagram (simplified)</text><text x="40" y="88" font-size="13" fill="#54656C">Table names only. Crow&#x27;s foot = many, bar = one, circle = optional; the label is the linking column. Purple dashed: link kept in code without a foreign key. Audit columns (created_by, approved_by ...) also point to users and are not drawn.</text><rect x="40" y="112" width="310" height="34" rx="8" fill="#EDF4FF" stroke="#5078AF"/><text x="195" y="134" font-size="13" font-weight="bold" fill="#244263" text-anchor="middle">Accounts and sessions</text><rect x="370" y="112" width="310" height="34" rx="8" fill="#FFF0E8" stroke="#BB5937"/><text x="525" y="134" font-size="13" font-weight="bold" fill="#5B2B1B" text-anchor="middle">Scans, reviews and sync</text><rect x="700" y="112" width="310" height="34" rx="8" fill="#EEEAFB" stroke="#7965AC"/><text x="855" y="134" font-size="13" font-weight="bold" fill="#433467" text-anchor="middle">Research images</text><rect x="1030" y="112" width="310" height="34" rx="8" fill="#EAF6EF" stroke="#3E8C66"/><text x="1185" y="134" font-size="13" font-weight="bold" fill="#1B4C35" text-anchor="middle">Disease knowledge and article library</text><polyline points="1860.0,246 1860.0,330 1860.0,330 1860.0,360" fill="none" stroke="#3F6B55" stroke-width="2"/><line x1="1867.0" y1="246" x2="1860.0" y2="259" stroke="#3F6B55" stroke-width="1.6"/><line x1="1860.0" y1="246" x2="1860.0" y2="259" stroke="#3F6B55" stroke-width="1.6"/><line x1="1853.0" y1="246" x2="1860.0" y2="259" stroke="#3F6B55" stroke-width="1.6"/><line x1="1867.0" y1="351" x2="1853.0" y2="351" stroke="#3F6B55" stroke-width="2"/><rect x="1824.0" y="280.0" width="72.0" height="15" fill="#FFFFFF" opacity="0.92"/><text x="1860.0" y="292.0" font-size="11" fill="#3F6B55" text-anchor="middle">article_id</text><polyline points="600.0,530 600.0,500 600.0,500 600.0,416" fill="none" stroke="#3F6B55" stroke-width="2"/><line x1="593.0" y1="530" x2="600.0" y2="517" stroke="#3F6B55" stroke-width="1.6"/><line x1="600.0" y1="530" x2="600.0" y2="517" stroke="#3F6B55" stroke-width="1.6"/><line x1="607.0" y1="530" x2="600.0" y2="517" stroke="#3F6B55" stroke-width="1.6"/><line x1="593.0" y1="425" x2="607.0" y2="425" stroke="#3F6B55" stroke-width="2"/><circle cx="600.0" cy="434" r="4.5" fill="#FFFFFF" stroke="#3F6B55" stroke-width="1.6"/><rect x="564.0" y="450.0" width="72.0" height="15" fill="#FFFFFF" opacity="0.92"/><text x="600.0" y="462.0" font-size="11" fill="#3F6B55" text-anchor="middle">disease_id</text><polyline points="1440.0,360 1440.0,330 1440.0,330 1440.0,246" fill="none" stroke="#3F6B55" stroke-width="2"/><line x1="1433.0" y1="360" x2="1440.0" y2="347" stroke="#3F6B55" stroke-width="1.6"/><line x1="1440.0" y1="360" x2="1440.0" y2="347" stroke="#3F6B55" stroke-width="1.6"/><line x1="1447.0" y1="360" x2="1440.0" y2="347" stroke="#3F6B55" stroke-width="1.6"/><line x1="1433.0" y1="255" x2="1447.0" y2="255" stroke="#3F6B55" stroke-width="2"/><rect x="1407.3" y="280.0" width="65.4" height="15" fill="#FFFFFF" opacity="0.92"/><text x="1440.0" y="292.0" font-size="11" fill="#3F6B55" text-anchor="middle">source_id</text><polyline points="600.0,586 600.0,641 600.0,641 600.0,800" fill="none" stroke="#3F6B55" stroke-width="2"/><line x1="607.0" y1="586" x2="600.0" y2="599" stroke="#3F6B55" stroke-width="1.6"/><line x1="600.0" y1="586" x2="600.0" y2="599" stroke="#3F6B55" stroke-width="1.6"/><line x1="593.0" y1="586" x2="600.0" y2="599" stroke="#3F6B55" stroke-width="1.6"/><line x1="607.0" y1="791" x2="593.0" y2="791" stroke="#3F6B55" stroke-width="2"/><rect x="573.9" y="712.5" width="52.199999999999996" height="15" fill="#FFFFFF" opacity="0.92"/><text x="600.0" y="724.5" font-size="11" fill="#3F6B55" text-anchor="middle">user_id</text><polyline points="1740,218.0 1610,218.0 1610,218.0 1560,218.0" fill="none" stroke="#3F6B55" stroke-width="2"/><line x1="1740" y1="211.0" x2="1727" y2="218.0" stroke="#3F6B55" stroke-width="1.6"/><line x1="1740" y1="218.0" x2="1727" y2="218.0" stroke="#3F6B55" stroke-width="1.6"/><line x1="1740" y1="225.0" x2="1727" y2="218.0" stroke="#3F6B55" stroke-width="1.6"/><line x1="1569" y1="211.0" x2="1569" y2="225.0" stroke="#3F6B55" stroke-width="2"/><rect x="1612.6" y="210.0" width="124.8" height="15" fill="#FFFFFF" opacity="0.92"/><text x="1675.0" y="222.0" font-size="11" fill="#3F6B55" text-anchor="middle">research_source_id</text><polyline points="1320,558.0 1190,558.0 1190,558.0 1140,558.0" fill="none" stroke="#3F6B55" stroke-width="2"/><line x1="1320" y1="551.0" x2="1307" y2="558.0" stroke="#3F6B55" stroke-width="1.6"/><line x1="1320" y1="558.0" x2="1307" y2="558.0" stroke="#3F6B55" stroke-width="1.6"/><line x1="1320" y1="565.0" x2="1307" y2="558.0" stroke="#3F6B55" stroke-width="1.6"/><line x1="1149" y1="551.0" x2="1149" y2="565.0" stroke="#3F6B55" stroke-width="2"/><rect x="1169.8" y="550.0" width="131.39999999999998" height="15" fill="#FFFFFF" opacity="0.92"/><text x="1235.5" y="562.0" font-size="11" fill="#3F6B55" text-anchor="middle">diagnosis_review_id</text><polyline points="900,558.0 770,558.0 770,558.0 720,558.0" fill="none" stroke="#3F6B55" stroke-width="2"/><line x1="890" y1="564.0" x2="890" y2="552.0" stroke="#3F6B55" stroke-width="2"/><line x1="729" y1="551.0" x2="729" y2="565.0" stroke="#3F6B55" stroke-width="2"/><rect x="792.4" y="550.0" width="85.19999999999999" height="15" fill="#FFFFFF" opacity="0.92"/><text x="835.0" y="562.0" font-size="11" fill="#3F6B55" text-anchor="middle">diagnosis_id</text><polyline points="300,828.0 450,828.0 450,828.0 480,828.0" fill="none" stroke="#3F6B55" stroke-width="2"/><line x1="300" y1="835.0" x2="313" y2="828.0" stroke="#3F6B55" stroke-width="1.6"/><line x1="300" y1="828.0" x2="313" y2="828.0" stroke="#3F6B55" stroke-width="1.6"/><line x1="300" y1="821.0" x2="313" y2="828.0" stroke="#3F6B55" stroke-width="1.6"/><line x1="471" y1="835.0" x2="471" y2="821.0" stroke="#3F6B55" stroke-width="2"/><rect x="348.9" y="820.0" width="52.199999999999996" height="15" fill="#FFFFFF" opacity="0.92"/><text x="375.0" y="832.0" font-size="11" fill="#3F6B55" text-anchor="middle">user_id</text><polyline points="1140,218.0 1190,218.0 1190,218.0 1320,218.0" fill="none" stroke="#3F6B55" stroke-width="2"/><line x1="1140" y1="225.0" x2="1153" y2="218.0" stroke="#3F6B55" stroke-width="1.6"/><line x1="1140" y1="218.0" x2="1153" y2="218.0" stroke="#3F6B55" stroke-width="1.6"/><line x1="1140" y1="211.0" x2="1153" y2="218.0" stroke="#3F6B55" stroke-width="1.6"/><line x1="1311" y1="225.0" x2="1311" y2="211.0" stroke="#3F6B55" stroke-width="2"/><rect x="1222.3" y="210.0" width="65.4" height="15" fill="#FFFFFF" opacity="0.92"/><text x="1255.0" y="222.0" font-size="11" fill="#3F6B55" text-anchor="middle">source_id</text><polyline points="900,388.0 770,388.0 770,388.0 720,388.0" fill="none" stroke="#3F6B55" stroke-width="2"/><line x1="900" y1="381.0" x2="887" y2="388.0" stroke="#3F6B55" stroke-width="1.6"/><line x1="900" y1="388.0" x2="887" y2="388.0" stroke="#3F6B55" stroke-width="1.6"/><line x1="900" y1="395.0" x2="887" y2="388.0" stroke="#3F6B55" stroke-width="1.6"/><line x1="729" y1="381.0" x2="729" y2="395.0" stroke="#3F6B55" stroke-width="2"/><rect x="799.0" y="380.0" width="72.0" height="15" fill="#FFFFFF" opacity="0.92"/><text x="835.0" y="392.0" font-size="11" fill="#3F6B55" text-anchor="middle">disease_id</text><polyline points="300,388.0 450,388.0 450,388.0 480,388.0" fill="none" stroke="#3F6B55" stroke-width="2"/><line x1="300" y1="395.0" x2="313" y2="388.0" stroke="#3F6B55" stroke-width="1.6"/><line x1="300" y1="388.0" x2="313" y2="388.0" stroke="#3F6B55" stroke-width="1.6"/><line x1="300" y1="381.0" x2="313" y2="388.0" stroke="#3F6B55" stroke-width="1.6"/><line x1="471" y1="395.0" x2="471" y2="381.0" stroke="#3F6B55" stroke-width="2"/><rect x="339.0" y="380.0" width="72.0" height="15" fill="#FFFFFF" opacity="0.92"/><text x="375.0" y="392.0" font-size="11" fill="#3F6B55" text-anchor="middle">disease_id</text><polyline points="1320,388.0 1190,388.0 1190,388.0 1140,388.0" fill="none" stroke="#3F6B55" stroke-width="2"/><line x1="1320" y1="381.0" x2="1307" y2="388.0" stroke="#3F6B55" stroke-width="1.6"/><line x1="1320" y1="388.0" x2="1307" y2="388.0" stroke="#3F6B55" stroke-width="1.6"/><line x1="1320" y1="395.0" x2="1307" y2="388.0" stroke="#3F6B55" stroke-width="1.6"/><line x1="1149" y1="381.0" x2="1149" y2="395.0" stroke="#3F6B55" stroke-width="2"/><rect x="1163.2" y="380.0" width="144.6" height="15" fill="#FFFFFF" opacity="0.92"/><text x="1235.5" y="392.0" font-size="11" fill="#3F6B55" text-anchor="middle">disease_management_id</text><polyline points="300,558.0 450,558.0 450,558.0 480,558.0" fill="none" stroke="#3F6B55" stroke-width="2"/><line x1="310" y1="552.0" x2="310" y2="564.0" stroke="#3F6B55" stroke-width="2"/><line x1="471" y1="565.0" x2="471" y2="551.0" stroke="#3F6B55" stroke-width="2"/><rect x="332.4" y="550.0" width="85.19999999999999" height="15" fill="#FFFFFF" opacity="0.92"/><text x="375.0" y="562.0" font-size="11" fill="#3F6B55" text-anchor="middle">diagnosis_id</text><polyline points="900,218.0 648.0,218.0 648.0,360" fill="none" stroke="#3F6B55" stroke-width="2"/><line x1="900" y1="211.0" x2="887" y2="218.0" stroke="#3F6B55" stroke-width="1.6"/><line x1="900" y1="218.0" x2="887" y2="218.0" stroke="#3F6B55" stroke-width="1.6"/><line x1="900" y1="225.0" x2="887" y2="218.0" stroke="#3F6B55" stroke-width="1.6"/><line x1="655.0" y1="351" x2="641.0" y2="351" stroke="#3F6B55" stroke-width="2"/><rect x="738.0" y="210.0" width="72.0" height="15" fill="#FFFFFF" opacity="0.92"/><text x="774.0" y="222.0" font-size="11" fill="#3F6B55" text-anchor="middle">disease_id</text><polyline points="300,218.0 552.0,218.0 552.0,360" fill="none" stroke="#3F6B55" stroke-width="2"/><line x1="300" y1="225.0" x2="313" y2="218.0" stroke="#3F6B55" stroke-width="1.6"/><line x1="300" y1="218.0" x2="313" y2="218.0" stroke="#3F6B55" stroke-width="1.6"/><line x1="300" y1="211.0" x2="313" y2="218.0" stroke="#3F6B55" stroke-width="1.6"/><line x1="559.0" y1="351" x2="545.0" y2="351" stroke="#3F6B55" stroke-width="2"/><rect x="390.0" y="210.0" width="72.0" height="15" fill="#FFFFFF" opacity="0.92"/><text x="426.0" y="222.0" font-size="11" fill="#3F6B55" text-anchor="middle">disease_id</text><polyline points="972.0,800 972.0,641 648.0,641 648.0,586" fill="none" stroke="#3F6B55" stroke-width="2"/><line x1="978.0" y1="790" x2="966.0" y2="790" stroke="#3F6B55" stroke-width="2"/><line x1="641.0" y1="595" x2="655.0" y2="595" stroke="#3F6B55" stroke-width="2"/><rect x="767.4" y="633.0" width="85.19999999999999" height="15" fill="#FFFFFF" opacity="0.92"/><text x="810.0" y="645.0" font-size="11" fill="#3F6B55" text-anchor="middle">diagnosis_id</text><polyline points="1020.0,586 1020.0,770 648.0,770 648.0,800" fill="none" stroke="#3F6B55" stroke-width="2"/><line x1="1027.0" y1="586" x2="1020.0" y2="599" stroke="#3F6B55" stroke-width="1.6"/><line x1="1020.0" y1="586" x2="1020.0" y2="599" stroke="#3F6B55" stroke-width="1.6"/><line x1="1013.0" y1="586" x2="1020.0" y2="599" stroke="#3F6B55" stroke-width="1.6"/><line x1="655.0" y1="791" x2="641.0" y2="791" stroke="#3F6B55" stroke-width="2"/><circle cx="648.0" cy="782" r="4.5" fill="#FFFFFF" stroke="#3F6B55" stroke-width="1.6"/><rect x="801.3" y="762.0" width="65.4" height="15" fill="#FFFFFF" opacity="0.92"/><text x="834.0" y="774.0" font-size="11" fill="#3F6B55" text-anchor="middle">expert_id</text><polyline points="228.0,586 228.0,641 552.0,641 552.0,800" fill="none" stroke="#3F6B55" stroke-width="2"/><line x1="235.0" y1="586" x2="228.0" y2="599" stroke="#3F6B55" stroke-width="1.6"/><line x1="228.0" y1="586" x2="228.0" y2="599" stroke="#3F6B55" stroke-width="1.6"/><line x1="221.0" y1="586" x2="228.0" y2="599" stroke="#3F6B55" stroke-width="1.6"/><line x1="559.0" y1="791" x2="545.0" y2="791" stroke="#3F6B55" stroke-width="2"/><rect x="363.9" y="633.0" width="52.199999999999996" height="15" fill="#FFFFFF" opacity="0.92"/><text x="390.0" y="645.0" font-size="11" fill="#3F6B55" text-anchor="middle">user_id</text><polyline points="300,206.8 750,206.8 750,828.0 720,828.0" fill="none" stroke="#3F6B55" stroke-width="2"/><line x1="300" y1="213.8" x2="313" y2="206.8" stroke="#3F6B55" stroke-width="1.6"/><line x1="300" y1="206.8" x2="313" y2="206.8" stroke="#3F6B55" stroke-width="1.6"/><line x1="300" y1="199.8" x2="313" y2="206.8" stroke="#3F6B55" stroke-width="1.6"/><line x1="729" y1="821.0" x2="729" y2="835.0" stroke="#3F6B55" stroke-width="2"/><circle cx="738" cy="828.0" r="4.5" fill="#FFFFFF" stroke="#3F6B55" stroke-width="1.6"/><rect x="717.3" y="509.4000000000001" width="65.4" height="15" fill="#FFFFFF" opacity="0.92"/><text x="750.0" y="521.4000000000001" font-size="11" fill="#3F6B55" text-anchor="middle">expert_id</text><polyline points="1392.0,586 1392.0,745 648.0,745 648.0,800" fill="none" stroke="#3F6B55" stroke-width="2"/><line x1="1399.0" y1="586" x2="1392.0" y2="599" stroke="#3F6B55" stroke-width="1.6"/><line x1="1392.0" y1="586" x2="1392.0" y2="599" stroke="#3F6B55" stroke-width="1.6"/><line x1="1385.0" y1="586" x2="1392.0" y2="599" stroke="#3F6B55" stroke-width="1.6"/><line x1="655.0" y1="791" x2="641.0" y2="791" stroke="#3F6B55" stroke-width="2"/><circle cx="648.0" cy="782" r="4.5" fill="#FFFFFF" stroke="#3F6B55" stroke-width="1.6"/><rect x="987.3" y="737.0" width="65.4" height="15" fill="#FFFFFF" opacity="0.92"/><text x="1020.0" y="749.0" font-size="11" fill="#3F6B55" text-anchor="middle">expert_id</text><polyline points="600.0,980 600.0,911 600.0,911 600.0,856" fill="none" stroke="#7A6AA8" stroke-width="2" stroke-dasharray="7 5"/><line x1="593.0" y1="980" x2="600.0" y2="967" stroke="#7A6AA8" stroke-width="1.6"/><line x1="600.0" y1="980" x2="600.0" y2="967" stroke="#7A6AA8" stroke-width="1.6"/><line x1="607.0" y1="980" x2="600.0" y2="967" stroke="#7A6AA8" stroke-width="1.6"/><line x1="593.0" y1="865" x2="607.0" y2="865" stroke="#7A6AA8" stroke-width="2"/><circle cx="600.0" cy="874" r="4.5" fill="#FFFFFF" stroke="#7A6AA8" stroke-width="1.6"/><rect x="573.9" y="937.5" width="52.199999999999996" height="15" fill="#FFFFFF" opacity="0.92"/><text x="600.0" y="949.5" font-size="11" fill="#7A6AA8" text-anchor="middle">user_id</text><polyline points="1320,828.0 1190,828.0 1190,828.0 1140,828.0" fill="none" stroke="#7A6AA8" stroke-width="2" stroke-dasharray="7 5"/><line x1="1320" y1="821.0" x2="1307" y2="828.0" stroke="#7A6AA8" stroke-width="1.6"/><line x1="1320" y1="828.0" x2="1307" y2="828.0" stroke="#7A6AA8" stroke-width="1.6"/><line x1="1320" y1="835.0" x2="1307" y2="828.0" stroke="#7A6AA8" stroke-width="1.6"/><line x1="1149" y1="821.0" x2="1149" y2="835.0" stroke="#7A6AA8" stroke-width="2"/><rect x="1169.8" y="820.0" width="131.39999999999998" height="15" fill="#FFFFFF" opacity="0.92"/><text x="1235.5" y="832.0" font-size="11" fill="#7A6AA8" text-anchor="middle">source_candidate_id</text><polyline points="228.0,980 228.0,911 552.0,911 552.0,856" fill="none" stroke="#7A6AA8" stroke-width="2" stroke-dasharray="7 5"/><line x1="221.0" y1="980" x2="228.0" y2="967" stroke="#7A6AA8" stroke-width="1.6"/><line x1="228.0" y1="980" x2="228.0" y2="967" stroke="#7A6AA8" stroke-width="1.6"/><line x1="235.0" y1="980" x2="228.0" y2="967" stroke="#7A6AA8" stroke-width="1.6"/><line x1="545.0" y1="865" x2="559.0" y2="865" stroke="#7A6AA8" stroke-width="2"/><rect x="347.4" y="903.0" width="85.19999999999999" height="15" fill="#FFFFFF" opacity="0.92"/><text x="390.0" y="915.0" font-size="11" fill="#7A6AA8" text-anchor="middle">tokenable_id</text><polyline points="972.0,980 972.0,911 648.0,911 648.0,856" fill="none" stroke="#7A6AA8" stroke-width="2" stroke-dasharray="7 5"/><line x1="978.0" y1="970" x2="966.0" y2="970" stroke="#7A6AA8" stroke-width="2"/><line x1="641.0" y1="865" x2="655.0" y2="865" stroke="#7A6AA8" stroke-width="2"/><rect x="790.5" y="903.0" width="39.0" height="15" fill="#FFFFFF" opacity="0.92"/><text x="810.0" y="915.0" font-size="11" fill="#7A6AA8" text-anchor="middle">email</text><polyline points="180.0,800 180.0,616 552.0,616 552.0,586" fill="none" stroke="#7A6AA8" stroke-width="2" stroke-dasharray="7 5"/><line x1="173.0" y1="800" x2="180.0" y2="787" stroke="#7A6AA8" stroke-width="1.6"/><line x1="180.0" y1="800" x2="180.0" y2="787" stroke="#7A6AA8" stroke-width="1.6"/><line x1="187.0" y1="800" x2="180.0" y2="787" stroke="#7A6AA8" stroke-width="1.6"/><line x1="545.0" y1="595" x2="559.0" y2="595" stroke="#7A6AA8" stroke-width="2"/><rect x="323.4" y="608.0" width="85.19999999999999" height="15" fill="#FFFFFF" opacity="0.92"/><text x="366.0" y="620.0" font-size="11" fill="#7A6AA8" text-anchor="middle">diagnosis_id</text><polyline points="1392.0,856 1392.0,886 648.0,886 648.0,856" fill="none" stroke="#7A6AA8" stroke-width="2" stroke-dasharray="7 5"/><line x1="1399.0" y1="856" x2="1392.0" y2="869" stroke="#7A6AA8" stroke-width="1.6"/><line x1="1392.0" y1="856" x2="1392.0" y2="869" stroke="#7A6AA8" stroke-width="1.6"/><line x1="1385.0" y1="856" x2="1392.0" y2="869" stroke="#7A6AA8" stroke-width="1.6"/><line x1="641.0" y1="865" x2="655.0" y2="865" stroke="#7A6AA8" stroke-width="2"/><circle cx="648.0" cy="874" r="4.5" fill="#FFFFFF" stroke="#7A6AA8" stroke-width="1.6"/><rect x="970.8" y="878.0" width="98.39999999999999" height="15" fill="#FFFFFF" opacity="0.92"/><text x="1020.0" y="890.0" font-size="11" fill="#7A6AA8" text-anchor="middle">source_user_id</text><polyline points="1440.0,800 1440.0,616 648.0,616 648.0,586" fill="none" stroke="#7A6AA8" stroke-width="2" stroke-dasharray="7 5"/><line x1="1433.0" y1="800" x2="1440.0" y2="787" stroke="#7A6AA8" stroke-width="1.6"/><line x1="1440.0" y1="800" x2="1440.0" y2="787" stroke="#7A6AA8" stroke-width="1.6"/><line x1="1447.0" y1="800" x2="1440.0" y2="787" stroke="#7A6AA8" stroke-width="1.6"/><line x1="641.0" y1="595" x2="655.0" y2="595" stroke="#7A6AA8" stroke-width="2"/><rect x="978.3" y="608.0" width="131.39999999999998" height="15" fill="#FFFFFF" opacity="0.92"/><text x="1044.0" y="620.0" font-size="11" fill="#7A6AA8" text-anchor="middle">source_diagnosis_id</text><polyline points="1812.0,416 1812.0,446 648.0,446 648.0,416" fill="none" stroke="#7A6AA8" stroke-width="2" stroke-dasharray="7 5"/><line x1="1819.0" y1="416" x2="1812.0" y2="429" stroke="#7A6AA8" stroke-width="1.6"/><line x1="1812.0" y1="416" x2="1812.0" y2="429" stroke="#7A6AA8" stroke-width="1.6"/><line x1="1805.0" y1="416" x2="1812.0" y2="429" stroke="#7A6AA8" stroke-width="1.6"/><line x1="641.0" y1="425" x2="655.0" y2="425" stroke="#7A6AA8" stroke-width="2"/><circle cx="648.0" cy="434" r="4.5" fill="#FFFFFF" stroke="#7A6AA8" stroke-width="1.6"/><rect x="1190.7" y="438.0" width="78.6" height="15" fill="#FFFFFF" opacity="0.92"/><text x="1230.0" y="450.0" font-size="11" fill="#7A6AA8" text-anchor="middle">disease_key</text><rect x="60" y="190" width="240" height="56" rx="9" fill="#EAF6EF" stroke="#3E8C66" stroke-width="2"/><text x="180.0" y="223.0" font-size="15" font-weight="bold" fill="#1B4C35" text-anchor="middle">disease_verifications</text><rect x="900" y="190" width="240" height="56" rx="9" fill="#EAF6EF" stroke="#3E8C66" stroke-width="2"/><text x="1020.0" y="223.0" font-size="15" font-weight="bold" fill="#1B4C35" text-anchor="middle">disease_evidence</text><rect x="1320" y="190" width="240" height="56" rx="9" fill="#EAF6EF" stroke="#3E8C66" stroke-width="2"/><text x="1440.0" y="223.0" font-size="15" font-weight="bold" fill="#1B4C35" text-anchor="middle">research_sources</text><rect x="1740" y="190" width="240" height="56" rx="9" fill="#EAF6EF" stroke="#3E8C66" stroke-width="2"/><text x="1860.0" y="223.0" font-size="15" font-weight="bold" fill="#1B4C35" text-anchor="middle">article_research_source</text><rect x="60" y="360" width="240" height="56" rx="9" fill="#EAF6EF" stroke="#3E8C66" stroke-width="2"/><text x="180.0" y="393.0" font-size="15" font-weight="bold" fill="#1B4C35" text-anchor="middle">disease_symptoms</text><rect x="480" y="360" width="240" height="56" rx="9" fill="#EAF6EF" stroke="#3E8C66" stroke-width="2"/><text x="600.0" y="393.0" font-size="15" font-weight="bold" fill="#1B4C35" text-anchor="middle">diseases</text><rect x="900" y="360" width="240" height="56" rx="9" fill="#EAF6EF" stroke="#3E8C66" stroke-width="2"/><text x="1020.0" y="393.0" font-size="15" font-weight="bold" fill="#1B4C35" text-anchor="middle">disease_management</text><rect x="1320" y="360" width="240" height="56" rx="9" fill="#EAF6EF" stroke="#3E8C66" stroke-width="2"/><text x="1440.0" y="393.0" font-size="15" font-weight="bold" fill="#1B4C35" text-anchor="middle">pesticide_regulatory_checks</text><rect x="1740" y="360" width="240" height="56" rx="9" fill="#EAF6EF" stroke="#3E8C66" stroke-width="2"/><text x="1860.0" y="393.0" font-size="15" font-weight="bold" fill="#1B4C35" text-anchor="middle">articles</text><rect x="60" y="530" width="240" height="56" rx="9" fill="#FFF0E8" stroke="#BB5937" stroke-width="2"/><text x="180.0" y="563.0" font-size="15" font-weight="bold" fill="#5B2B1B" text-anchor="middle">review_claims</text><rect x="480" y="530" width="240" height="56" rx="9" fill="#FFF0E8" stroke="#BB5937" stroke-width="2"/><text x="600.0" y="563.0" font-size="15" font-weight="bold" fill="#5B2B1B" text-anchor="middle">diagnoses</text><rect x="900" y="530" width="240" height="56" rx="9" fill="#FFF0E8" stroke="#BB5937" stroke-width="2"/><text x="1020.0" y="563.0" font-size="15" font-weight="bold" fill="#5B2B1B" text-anchor="middle">diagnosis_reviews</text><rect x="1320" y="530" width="240" height="56" rx="9" fill="#FFF0E8" stroke="#BB5937" stroke-width="2"/><text x="1440.0" y="563.0" font-size="15" font-weight="bold" fill="#5B2B1B" text-anchor="middle">diagnosis_review_revisions</text><rect x="60" y="800" width="240" height="56" rx="9" fill="#FFF0E8" stroke="#BB5937" stroke-width="2"/><text x="180.0" y="833.0" font-size="15" font-weight="bold" fill="#5B2B1B" text-anchor="middle">diagnosis_sync_changes</text><rect x="480" y="800" width="240" height="56" rx="9" fill="#EDF4FF" stroke="#5078AF" stroke-width="2"/><text x="600.0" y="833.0" font-size="15" font-weight="bold" fill="#244263" text-anchor="middle">users</text><rect x="900" y="800" width="240" height="56" rx="9" fill="#EEEAFB" stroke="#7965AC" stroke-width="2"/><text x="1020.0" y="833.0" font-size="15" font-weight="bold" fill="#433467" text-anchor="middle">dataset_candidates</text><rect x="1320" y="800" width="240" height="56" rx="9" fill="#EEEAFB" stroke="#7965AC" stroke-width="2"/><text x="1440.0" y="833.0" font-size="15" font-weight="bold" fill="#433467" text-anchor="middle">research_images</text><rect x="60" y="980" width="240" height="56" rx="9" fill="#EDF4FF" stroke="#5078AF" stroke-width="2"/><text x="180.0" y="1013.0" font-size="15" font-weight="bold" fill="#244263" text-anchor="middle">personal_access_tokens</text><rect x="480" y="980" width="240" height="56" rx="9" fill="#EDF4FF" stroke="#5078AF" stroke-width="2"/><text x="600.0" y="1013.0" font-size="15" font-weight="bold" fill="#244263" text-anchor="middle">sessions</text><rect x="900" y="980" width="240" height="56" rx="9" fill="#EDF4FF" stroke="#5078AF" stroke-width="2"/><text x="1020.0" y="1013.0" font-size="15" font-weight="bold" fill="#244263" text-anchor="middle">password_reset_tokens</text></svg>